<?xml version="1.0" encoding="UTF-8"?>
<svg width="600px" height="800px" viewBox="0 0 600 800" version="1.1" xmlns="http://www.w3.org/2000/svg"
>
    <!-- Generator: Sketch 52.4 (67378) - http://www.bohemiancoding.com/sketch -->
    <title>player-placeholder-ub-800</title>
    <desc>Created with Sketch.</desc>
    <g id="player-placeholder-ub-800" stroke="none" stroke-width="1" fill="none" fill-rule="evenodd"
       fill-opacity="0.502264493" stroke-opacity="0.2">
        <path d="M145,800 L151,781 C153.666667,751.666667 156.666667,734 160,728 C163.333333,722 163.333333,709.666667 160,691 C132.666667,648.333333 115.666667,621.666667 109,611 C102.333333,600.333333 98.6666667,570.333333 98,521 C89.3333333,517.666667 84,514 82,510 C80,506 87.6666667,460.666667 105,374 C111,356 126.333333,341.333333 151,330 C175.666667,318.666667 197.333333,306 216,292 L238,278 C241.333333,276 243,269.666667 243,259 C243,248.333333 242,234.666667 240,218 L238,213 C233.333333,218.333333 229.333333,218.333333 226,213 C221,205 215,190 216,171 C216.666667,158.333333 220,155.666667 226,163 C224.666667,138.333333 224.666667,121 226,111 C228,96 239,63 280,58 C321,53 345,78 351,98 C357,118 358,153 358,160 C358,167 370,142 368,171 C366,200 362,202 360,207 C358,212 353,216 350,213 C347,210 348,210 346,218 C344,226 344,250 346,259 C348,268 371,285 420,308 C439.759878,317.275045 468.630886,326.01625 484,347 C490.692548,356.137466 496.025881,374.470799 500,402 C502,430 504,448.333333 506,457 C508,465.666667 512,481.666667 518,505 C520.666667,508.333333 520.666667,510.666667 518,512 C515.333333,513.333333 512,515 508,517 C506.666667,520.333333 506,525 506,531 C506,537 504.666667,557 502,591 L496,611 L484,627 L434,697 L434,706 L439,756 C441.731965,769.374623 443.398631,778.707956 444,784 C444.601369,789.292044 444.601369,794.625377 444,800 L216,800 L145,800 Z M429,529 L421,587 L421,619 L440,587 C442,581 443,576 443,572 C443,566 434,562 434,550 C434,542 433.333333,535.666667 432,531 L429,529 Z M173,605 L173,567 L169,550 L164,563 L161,574 C161,580.666667 162,585.333333 164,588 C166,590.666667 169,596.333333 173,605 Z"
              id="player-placeholder" stroke="#FFFFFF" stroke-width="2" fill="#000000"></path>
    </g>
</svg>